<svg xmlns="http://www.w3.org/2000/svg" viewBox="0 0 52 52"><defs><style>.cls-1{fill:#fff;}</style></defs><g id="Layer_2" data-name="Layer 2"><g id="Layer_1-2" data-name="Layer 1"><path class="cls-1" d="M26,13A13,13,0,1,0,39,26,13,13,0,0,0,26,13Zm0,24A11,11,0,1,1,37,26,11,11,0,0,1,26,37Z"/><rect class="cls-1" x="24.99" width="2" height="10"/><rect class="cls-1" x="24.99" y="42" width="2" height="10"/><rect class="cls-1" y="25" width="9.99" height="2"/><rect class="cls-1" x="41.99" y="25" width="10.01" height="2"/><rect class="cls-1" x="35.49" y="10.29" width="10.41" height="2" transform="translate(3.93 32.08) rotate(-45)"/><rect class="cls-1" x="6.08" y="39.7" width="10.41" height="2" transform="translate(-25.47 19.9) rotate(-45)"/><rect class="cls-1" x="10.29" y="6.09" width="2" height="10.41" transform="translate(-4.68 11.29) rotate(-45)"/><rect class="cls-1" x="39.68" y="35.52" width="2" height="10.41" transform="translate(-16.88 40.7) rotate(-45)"/></g></g></svg>