<svg xmlns="http://www.w3.org/2000/svg" viewBox="0 0 53 40.02"><defs><style>.cls-1{fill:#fff;}</style></defs><g id="Layer_2" data-name="Layer 2"><g id="Layer_1-2" data-name="Layer 1"><path class="cls-1" d="M43.63,13A16.49,16.49,0,0,0,12.8,9c-.27,0-.53,0-.8,0a12,12,0,0,0-.06,24H14V31H12A10,10,0,0,1,12,11l.52,0h.15l1.31.09.6-1.18a14.49,14.49,0,0,1,27.09,3.51L42,14.93,43.5,15A8,8,0,0,1,43,31H38v2h5a10,10,0,0,0,.63-20Z"/><circle class="cls-1" cx="18.5" cy="26.57" r="1.5"/><circle class="cls-1" cx="22.5" cy="32.5" r="1.5"/><circle class="cls-1" cx="30.5" cy="32.5" r="1.5"/><circle class="cls-1" cx="26.5" cy="26.57" r="1.5"/><circle class="cls-1" cx="34.5" cy="26.57" r="1.5"/><circle class="cls-1" cx="18.5" cy="38.52" r="1.5"/><circle class="cls-1" cx="26.5" cy="38.52" r="1.5"/><circle class="cls-1" cx="34.5" cy="38.52" r="1.5"/></g></g></svg>