<svg xmlns="http://www.w3.org/2000/svg" viewBox="0 0 58.05 43.99"><defs><style>.cls-1{fill:#fff;}</style></defs><g id="Layer_2" data-name="Layer 2"><g id="Layer_1-2" data-name="Layer 1"><path class="cls-1" d="M49.56,25.91A14.95,14.95,0,0,0,28.83,15.42a10,10,0,1,0-16.49,11A10.85,10.85,0,0,0,20.87,44H49a9,9,0,0,0,.56-18.08ZM20,12a8,8,0,0,1,7.09,4.35,15.05,15.05,0,0,0-5.42,5.91l-.72,0A10.81,10.81,0,0,0,13.72,25,7.93,7.93,0,0,1,12,20,8,8,0,0,1,20,12ZM49,42h-.12l-2.05,0v0h-26a8.87,8.87,0,0,1,0-17.73l.45,0h.15l1.31.09.6-1.18a12.93,12.93,0,0,1,24.18,3.13l.32,1.48,1.51.1A7,7,0,0,1,49,42Z"/><rect class="cls-1" x="18.97" width="2" height="7.97"/><rect class="cls-1" y="18.99" width="7.97" height="2"/><rect class="cls-1" x="7.71" y="4.78" width="2" height="7.97" transform="translate(-3.65 8.72) rotate(-45)"/><rect class="cls-1" x="27.24" y="7.77" width="7.97" height="2" transform="translate(2.94 24.65) rotate(-45)"/></g></g></svg>