<svg xmlns="http://www.w3.org/2000/svg" viewBox="0 0 50 37.96"><defs><style>.cls-1{fill:#fff;}</style></defs><g id="Layer_2" data-name="Layer 2"><g id="Layer_1-2" data-name="Layer 1"><path class="cls-1" d="M41.51,19.88A14.95,14.95,0,0,0,21.79,9,11,11,0,0,0,11,0c-.41,0-.82,0-1.22.07A7,7,0,0,1,.07,9.78C0,10.18,0,10.59,0,11a11,11,0,0,0,4.66,9,10.85,10.85,0,0,0,8.15,18H40.94a9,9,0,0,0,.57-18.08ZM2.18,12.78A8.74,8.74,0,0,0,4,13a9,9,0,0,0,9-9,8.74,8.74,0,0,0-.18-1.78,9,9,0,0,1,7.13,7.64,15.05,15.05,0,0,0-6.32,6.44c-.24,0-.48,0-.72,0a10.81,10.81,0,0,0-6.72,2.34A9,9,0,0,1,2.18,12.78ZM41,36h-.11l-2,0V36h-26a8.87,8.87,0,0,1,0-17.74l.44,0h.15l1.32.09.59-1.17a12.94,12.94,0,0,1,24.19,3.12l.31,1.49,1.52.09A7.05,7.05,0,0,1,41,36Z"/></g></g></svg>