<svg xmlns="http://www.w3.org/2000/svg" viewBox="0 0 53 48"><defs><style>.cls-1{fill:#fff;}</style></defs><g id="Layer_2" data-name="Layer 2"><g id="Layer_1-2" data-name="Layer 1"><path class="cls-1" d="M43.63,13A16.49,16.49,0,0,0,12.8,9c-.27,0-.53,0-.8,0a12,12,0,0,0-.06,24H14V31H12A10,10,0,0,1,12,11l.52,0h.15l1.31.09.6-1.18a14.49,14.49,0,0,1,27.09,3.51L42,14.93l1.52.1A8,8,0,0,1,43,31H38v2h5a10,10,0,0,0,.63-20Z"/><circle class="cls-1" cx="18" cy="40.5" r="1.5"/><circle class="cls-1" cx="26" cy="46.5" r="1.5"/><circle class="cls-1" cx="34" cy="42.5" r="1.5"/><rect class="cls-1" x="17" y="24.02" width="2" height="11.98"/><polygon class="cls-1" points="27 41.96 27 40.02 27 28.02 25 28.02 25 40.02 25 41.96 25 42 27 42 27 41.96"/><polygon class="cls-1" points="35 37.78 35 36.02 35 24.02 33 24.02 33 36.02 33 37.78 33 38 35 38 35 37.78"/></g></g></svg>