<svg xmlns="http://www.w3.org/2000/svg" viewBox="0 0 300.25 201.83"><defs><style>.cls-1{fill:#fff;}</style></defs><g id="Layer_2" data-name="Layer 2"><g id="Capa_1" data-name="Capa 1"><path class="cls-1" d="M238.7,78.74a61,61,0,0,0-14.84,1.67l-19-51h6.18A36.8,36.8,0,0,0,237,19.11l6.55-6.28a7.48,7.48,0,1,0-10.45-10.7l-6.54,6.2a21.92,21.92,0,0,1-15.44,6.12h-17a7.72,7.72,0,0,0-7,10.35l7.22,19.37s-.1.14-.14.14,0,.14-.05.14h-96l-13-21.84,14.07-4.89A7.31,7.31,0,0,0,96.81,3.45H55.6A10.33,10.33,0,0,0,45.12,13.73,16.09,16.09,0,0,0,66.6,28.92l4.1-1.43,13.14,22L73.75,79.77A61.54,61.54,0,1,0,59.54,201.59c.67,0,1.34,0,2,0a61.11,61.11,0,0,0,44.21-18.8,61.91,61.91,0,0,0,16.89-35.38h12a16.13,16.13,0,0,0,9.64,3.64,14.86,14.86,0,0,0,14.86-14.84,14.68,14.68,0,0,0-1.94-7.3l42-71.31,10.55,28.29a61.54,61.54,0,1,0,28.85-7.19ZM181,59.45l-36.61,62.09s0-.06,0-.06-.09.1-.13.1L107.08,59.45Zm-87,7L131.37,129a19.86,19.86,0,0,0-1.41,3.48h-7.33A62,62,0,0,0,88,84.45Zm-19.54,66a9.25,9.25,0,0,0-1.73-2.23l8.86-26.63a42.55,42.55,0,0,1,20.84,28.86Zm17,36.47A41.53,41.53,0,1,1,61.55,98.53l1.37,0a43.33,43.33,0,0,1,4.44.39l-9,26.9a14.82,14.82,0,0,0,3.38,29.26,14,14,0,0,0,12.95-7.65h27.7A41.44,41.44,0,0,1,91.4,168.92Zm147.3,12.91a41.53,41.53,0,0,1-21.77-76.91L231,142.7a7.5,7.5,0,1,0,14.05-5.24l-14.16-38a41.54,41.54,0,1,1,7.78,82.35Z"/></g></g></svg>