<svg xmlns="http://www.w3.org/2000/svg" viewBox="0 0 980.01 638.21"><defs><style>.cls-1{fill:#fff;}</style></defs><g id="Layer_2" data-name="Layer 2"><g id="Layer_1-2" data-name="Layer 1"><path class="cls-1" d="M174.46.67c-22.83,2.8-25.85,8.83-25.85,50.62V82.52H117.38c-48.89,0-51.26,2.37-52.34,50l-.86,31.88H43.94c-22.83,0-32.09,2.8-39.2,11.85C0,182.24,0,182.24,0,305.44c0,121.69,0,123.42,4.52,129,7.75,9.91,14.86,12.06,38.34,12.06H64.4l.65,45.66c.86,63.75,1.29,64.18,52.34,64.18h31.23v31.23c0,50,.86,50.62,59,50.62h39.85l7.75-7.54,7.54-7.54.43-115.88.65-115.66,225.72-.65,225.51-.43V500.79c0,68.71.86,113.51,2.15,118.46a32.2,32.2,0,0,0,8.83,13.35c6.46,5.6,6.68,5.6,46.74,5.6,43.72-.21,47.17-.86,54.49-12.06,3.45-5.38,4.09-10.34,4.09-38.12V556.36h31.45c48,0,50.83-2.58,52.12-51.26l.86-30.59h20.25c23.91,0,33.38-3.23,39.63-13.35,4.09-6.89,4.31-10.55,4.31-127.72,0-92.19-.65-121.91-2.8-126-1.51-2.8-6-7.54-9.91-10.12-6.46-4.31-9.91-4.95-29.51-4.95H915.6l-.65-44.8c-.86-49.11-1.72-53.42-13.57-60.74-6-3.88-10.77-4.31-38.55-4.31H831.38V51.07c0-27.78-.43-32.31-4.31-38.55C820.39,1.75,814.58.46,772.36.24,731.22,0,727.78.89,720,13c-3.66,5.38-3.88,15.29-4.52,120.62l-.65,114.8-225.51-.43-225.51-.65-.65-115.66-.43-115.88-7.54-7.54c-5.6-5.38-9.69-7.54-14.65-7.75C201.6-.19,182.65-.19,174.46.67Zm56,318.77V605.9H180.92V33h49.54Zm568.62,0V605.9H749.54V33h49.54Zm-650.46,0V524.06H99.08V114.82h49.54Zm732.3,0V524.06H831.38V114.82h49.54ZM64.62,306.52v107.9l-15.51-.65-15.72-.65-.65-107.26-.43-107h32.3V306.52Zm882.64,26.27.43,107.26h-32.3V224.45l15.72.65,15.51.65ZM715.08,319.44v38.77l-225.51-.43-225.72-.65-.65-35.54c-.22-19.38,0-36.62.43-38.12.86-2.37,44.59-2.8,226.37-2.8H715.08Z"/></g></g></svg>