<svg xmlns="http://www.w3.org/2000/svg" viewBox="0 0 58 43"><defs><style>.cls-1{fill:#fff;}</style></defs><g id="Layer_2" data-name="Layer 2"><g id="Layer_1-2" data-name="Layer 1"><path class="cls-1" d="M32,31H12A10,10,0,0,1,12,11l.52,0h.15l1.31.09.6-1.18a14.49,14.49,0,0,1,27.09,3.51L42,14.93l1.51.1a7.86,7.86,0,0,1,4.75,2H51a10,10,0,0,0-7.35-4A16.49,16.49,0,0,0,12.8,9c-.27,0-.53,0-.8,0a12,12,0,0,0-.06,24H32a4,4,0,0,1,0,8v2a6,6,0,0,0,0-12Z"/><path class="cls-1" d="M36,27H20v2H36a6,6,0,0,0,0-12v2a4,4,0,0,1,0,8Z"/><path class="cls-1" d="M49,21a3,3,0,0,1,0,6l-.13,0H44s0,0,0,0h0v2h5.5v-.06A5,5,0,0,0,49,19v2Z"/><path class="cls-1" d="M53,31H40v2H53a3,3,0,0,1,0,6v2a5,5,0,0,0,0-10Z"/><rect class="cls-1" x="14" y="27" width="4" height="2"/></g></g></svg>