<svg xmlns="http://www.w3.org/2000/svg" viewBox="0 0 53 43"><defs><style>.cls-1{fill:#fff;}</style></defs><g id="Layer_2" data-name="Layer 2"><g id="Layer_1-2" data-name="Layer 1"><path class="cls-1" d="M43.63,13A16.49,16.49,0,0,0,12.8,9c-.27,0-.53,0-.8,0a12,12,0,0,0-.06,24H14V31H12A10,10,0,0,1,12,11l.52,0h.15l1.31.09.6-1.18a14.49,14.49,0,0,1,27.09,3.51L42,14.93l1.52.09A8,8,0,0,1,43,31H40v2h3a10,10,0,0,0,.63-20Z"/><polygon class="cls-1" points="22 32.02 22 29.39 24.17 30.61 24.86 29.39 22.39 28 24.86 26.61 24.17 25.39 22 26.61 22 24.02 20 24.02 20 26.66 17.75 25.39 17.06 26.61 19.53 28 17.06 29.39 17.75 30.61 20 29.34 20 32.02 22 32.02"/><polygon class="cls-1" points="27.16 36.37 24.99 37.59 24.99 35 22.99 35 22.99 37.64 20.74 36.37 20.05 37.59 22.52 38.98 20.05 40.37 20.74 41.59 22.99 40.33 22.99 43 24.99 43 24.99 40.37 27.16 41.59 27.85 40.37 25.38 38.98 27.85 37.59 27.16 36.37"/><polygon class="cls-1" points="36.18 29.39 34.01 30.61 34.01 28.02 32.01 28.02 32.01 30.66 29.75 29.39 29.07 30.61 31.54 32 29.07 33.39 29.75 34.61 32.01 33.34 32.01 36.02 34.01 36.02 34.01 33.39 36.18 34.61 36.86 33.39 34.39 32 36.86 30.61 36.18 29.39"/></g></g></svg>