<svg xmlns="http://www.w3.org/2000/svg" viewBox="0 0 53 44"><defs><style>.cls-1{fill:#fff;}</style></defs><g id="Layer_2" data-name="Layer 2"><g id="Layer_1-2" data-name="Layer 1"><path class="cls-1" d="M43.63,13A16.49,16.49,0,0,0,12.8,9c-.27,0-.53,0-.8,0a12,12,0,0,0-.06,24H13V31H12A10,10,0,0,1,12,11l.52,0h.15l1.31.09.6-1.18a14.49,14.49,0,0,1,27.09,3.51L42,14.93l1.52.1A8,8,0,0,1,43,31H42v2h1a10,10,0,0,0,.63-20Z"/><rect class="cls-1" x="17.04" y="26.4" width="2" height="11.18" transform="translate(-15.08 16.14) rotate(-35)"/><rect class="cls-1" x="35.02" y="26.4" width="2" height="11.18" transform="translate(-11.83 26.45) rotate(-35)"/><polygon class="cls-1" points="28.84 36 30.61 36 31.04 36 33.05 36 26.64 26.84 25 27.99 29.21 34 27.44 34 25 34 26.27 35.82 27.38 37.41 32 44 33.64 42.85 29.02 36.26 28.84 36"/></g></g></svg>