<svg xmlns="http://www.w3.org/2000/svg" xmlns:xlink="http://www.w3.org/1999/xlink" viewBox="0 0 125.96 173.89"><defs><style>.cls-1{fill:#4b49bb;}.cls-2{fill:url(#linear-gradient);}.cls-3{fill:url(#linear-gradient-2);}.cls-4{fill:url(#linear-gradient-3);}.cls-5{fill:url(#linear-gradient-4);}.cls-6{opacity:0.07;isolation:isolate;}.cls-7{fill:#fff;}.cls-8{fill:#77c7e8;}</style><linearGradient id="linear-gradient" x1="1418.59" y1="1547.2" x2="1105.05" y2="1547.2" gradientTransform="translate(-443.95 -472.51) scale(0.4)" gradientUnits="userSpaceOnUse"><stop offset="0" stop-color="#93df93"/><stop offset="1" stop-color="#21c2c1"/></linearGradient><linearGradient id="linear-gradient-2" x1="503.66" y1="-264.43" x2="678.56" y2="-264.43" gradientTransform="matrix(0.4, 0, 0, -0.4, -159.72, -46.27)" gradientUnits="userSpaceOnUse"><stop offset="0" stop-color="#f87b58"/><stop offset="0.5" stop-color="#f8c548"/><stop offset="1" stop-color="#f89c51"/></linearGradient><linearGradient id="linear-gradient-3" x1="429.44" y1="738.01" x2="695.56" y2="738.01" gradientTransform="translate(-159.72 -203.76) scale(0.4)" gradientUnits="userSpaceOnUse"><stop offset="0" stop-color="#4b45bd"/><stop offset="1" stop-color="#58caea"/></linearGradient><linearGradient id="linear-gradient-4" x1="482.76" y1="624.97" x2="632.68" y2="624.97" xlink:href="#linear-gradient-3"/></defs><g id="Layer_2" data-name="Layer 2"><g id="girl_laptop" data-name="girl laptop"><g id="woman"><path class="cls-1" d="M90.23,163.51c-2.37-3.94-4.26-5-10.13-5.14s-13.66-.08-13.66-.08l-.08,8.31s6.47,3.74,9.93,5.59l1.16.68a10.66,10.66,0,0,0,1.89.68c3.41.73,6.51.36,8.72-1.85C90.51,169.25,92.6,167.45,90.23,163.51Z"/><path class="cls-1" d="M46,156.12l-1.09.84a11.88,11.88,0,0,0-1.33,1.49c-1.92,2.89-2.77,5.9-1.52,8.8,1.36,3.17,2.29,5.82,6.79,5.06s6.22-2.13,8.55-7.48,5.19-12.65,5.15-12.65L54.87,149S49,153.63,46,156.12Z"/><path class="cls-2" d="M67,158.65s.12,8.39-1.25,8.6S45.51,164.71,38,164.31s-24.55-5.26-32.9-14.7c-7.23-8.16-6.11-17.2-.77-17.2s10.25-4.54,23.83,1.93a75.06,75.06,0,0,0,36,6.91c8.08-.64,30.7-4.82,32.47-6.1s10.24-5,22-3.7,6.23,10.65,3.74,14.26c-3.5,5-11.77,10.41-18.68,10.65S67,158.65,67,158.65Z"/><path class="cls-3" d="M53,11.81c-4,1.45-9,21.13-9,21.13l-.08-.08-.57,2.73-.68,3.58L44,60.54,56.8,67l29.53,8,8.16,11.62s18.27,18.6,18.4,19.88-19.65,7.84-21.54,8.12c-4.54.68,29.05-7.56,18.28-20.61C105.05,88.34,98.34,71.55,85,60.42,77.33,54,79.5,35.71,76.77,24.14c-3.42-14.46-5.5-18.8-8.92-18.8C64.76,5.34,60.46,9,53,11.81"/><path class="cls-4" d="M94.77,58.53c-6.19-5.66-8.28-7-13.7-5.1S73,57.13,65.6,58.33a23.46,23.46,0,0,1-13.46-1.64L36.92,58.21C35,58,13.33,98.63,12.81,107.06c-.32,5.19,11.45,13.18,14.75,14,1.32.33,3.69-12.45,4.45-13.61l-4.94-1.53A81.8,81.8,0,0,1,32.9,95.29c.6-.92,5.3-8.67,5.94-11.65.12.28.81,5.91,1.45,7.72,1.21,3.33,2.85,5.22,2.85,7.87s-.32,13.18-2.25,17.92-4.74,15.71-4.74,15.71l48.69-.29s-1.76-20.93-1-28.12a13.21,13.21,0,0,1,.68-7.07c2.37-6.91,3.06-17.19,2.65-18.8-.6-2.53,14.31,18.88,17.56,24.31,1.37,2.25-17.15,6.22-18.68,8s1.57,6.71,1.57,6.71,32.3-3.94,32.14-8.88S102,65.08,94.77,58.53Z"/><path class="cls-5" d="M56.88.24a13.13,13.13,0,0,0-11.65,9.84c-2.61,9.48-3,22.7-3,24.75S43.1,49.7,38.24,55c-4.18,4.58-2.49,9-3.53,12.65l-.49,6.07a1.94,1.94,0,0,0,1.29,1.57c.64.2,2.89-.85,3.29-1,5.63-2.25,5.63-4.06,7.76-5.86,1.77-1.49,6.63-4.94,8.07-6.31s2.45-2.57,2.53-4.3C57.45,49,55.92,40.9,54,36.6S48.37,25,51.46,20.21s8.68-9.64,9-10.85.48,4.66,3.9,6.71,6.26,4.9,7.31,7.67c.88,2.33,2,6.31-1.17,13.18s-5.82,15.71-1.28,22.26S83.32,72.8,84.88,76.09c1.77,3.66.08,12.25-.24,17.44s10.13-9,9.81-15.75.8-9.64-5.67-20S78.09,29.65,77.93,25.35,75.84,9.12,72,5.7c-3.38-2.89-4.1-5.7-11-5.7a34,34,0,0,0-4.06.24"/><path class="cls-6" d="M36.27,143.9l45.64.25s-5.34,4.17-7.91,4.66-13.58,5.94-17.68,3.85C53.43,151.1,36.27,143.9,36.27,143.9Z"/><path class="cls-6" d="M61.7,41.42S66,42.5,67.73,40c4-5.62.36,2.86.36,2.86A18.78,18.78,0,0,0,67,47.81c.08,1.64-4.58-6.15-5.31-6.39"/><path class="cls-6" d="M44.67,70.35A5.68,5.68,0,0,0,43,73.16a25.37,25.37,0,0,1-3.25,8.35c-1.09,1.61-.48,7.84,1.32,11.77.53,1.13,2.13,4.06,2.09,4.75l-.12,5.7h4.9s4.18.44,3.3-3c-.77-3.06-4.74-14.43-2-16.92,5.06-4.62-1.33-13.86,1-16.83,2-2.57,5-4.42,5-5.26,0-.32-.77.72-1.29,1.08-1,.73-1.53,1.29-2.37,1.85s-2.33,1.61-3.25,2.29A21.69,21.69,0,0,0,44.67,70.35Z"/></g><g id="laptop"><path class="cls-7" d="M25.59,106.94a3,3,0,0,1,2.89-3.09c2.93-.12,65,0,65,0s2.73.32,2.81,2.53.08,35,.08,35A2.57,2.57,0,0,1,93.76,144c-2.69.08-66,.08-66,.08a3.11,3.11,0,0,1-2.33-3C25.47,138.72,25.59,106.94,25.59,106.94Z"/><circle class="cls-8" cx="61.18" cy="123.94" r="2.69"/></g></g></g></svg>