<svg xmlns="http://www.w3.org/2000/svg" viewBox="0 0 115.76 91.31"><defs><style>.cls-1{fill:#fff;}</style></defs><g id="Layer_2" data-name="Layer 2"><g id="Layer_1-2" data-name="Layer 1"><path class="cls-1" d="M115.56,76c-.1-.5-.1-.9-.2-1.4a18.42,18.42,0,0,0-1-3.9,10.75,10.75,0,0,0-1.9-3.1c-3.3-3.5-7.9-3.4-12.6-3.2a26.08,26.08,0,0,1-7.5-.5c-4.7-1.4-8.2-5.5-10.7-10.6-3.5-7.2-5-16.3-5.3-23.3v-.2a3.87,3.87,0,0,1-.1-.9c-.3-3.7-.5-6.2-2.5-8.1-.4-.3-1-1.63-4.6-2.1a19.14,19.14,0,0,0-6.3.2c-1.2.1-2.4.3-3.5.3a17,17,0,0,1-9.8-2.6c-2.8-1.9-5.1-4.9-6.7-9.4-.1-.1-.1-.1-.1-.2a15,15,0,0,0-4.3-5.9C36-.7,31.35-.48,26,3.2c-.8.7-1.5,1.2-2.2,1.8-.6.4-1.1.8-1.6,1.1a20.46,20.46,0,0,1-4.9,2.2c-.8.3-1.8.6-3.2,1.1a40.81,40.81,0,0,0-4.2,1.7,15.51,15.51,0,0,0-3.6,2.1,15.86,15.86,0,0,0-3.5,3.3A12.93,12.93,0,0,0,.26,27.1a27.57,27.57,0,0,0,5.1,10.5,71.66,71.66,0,0,0,13,12.8c1.7,1.2,3.1,2.4,4.4,3.3,5.5,4.1,7.1,5.3,13.8,14.4,5.7,7.7,11.2,13.3,18.1,17.1s15.2,5.8,26.4,6.1c3.2.1,10.5-.2,16.9-.8,4.7-.5,9-1.1,11.2-2a9.69,9.69,0,0,0,5.4-5.3,14.11,14.11,0,0,0,1.1-5.7,2.2,2.2,0,0,0,.1-.8A1.85,1.85,0,0,0,115.56,76Zm-4.4,5.8a6.48,6.48,0,0,1-3.5,3.4,49,49,0,0,1-10.2,1.7,162.43,162.43,0,0,1-16.5.8c-10.6-.3-18.4-2.1-24.8-5.6S44.66,73.3,39.26,66c-7.1-9.5-8.7-10.7-14.6-15.1-1.2-.9-2.5-1.9-4.3-3.3a63.09,63.09,0,0,1-12.2-12c-2.2-3.1-3.9-6.2-4.4-9.1a9.6,9.6,0,0,1,1.8-7.8,10.59,10.59,0,0,1,1-1.2c1.2,2.6,2.6,5.1,3.8,7.5a80.31,80.31,0,0,0,6.1,8,42.69,42.69,0,0,0,5.4,5.2c1.7,1.3,3.3,2.4,4.8,3.4,8.4,5.4,11.1,9.9,14.1,14.8A68.06,68.06,0,0,0,49.46,68a44.29,44.29,0,0,0,12.4,9.3A36,36,0,0,0,76,81c7,.5,16-.4,24.7-1.3,3.9-.4,7.7-.8,11.2-1A10.05,10.05,0,0,1,111.16,81.8Zm.9-6.7c-3.6.3-7.5.7-11.4,1.1-8.5.8-17.3,1.7-24.1,1.3a31.12,31.12,0,0,1-12.8-3.3,39.76,39.76,0,0,1-11.5-8.6,58.44,58.44,0,0,1-8.2-11c-3.2-5.3-6.1-10.1-15.2-15.9a37.9,37.9,0,0,1-4.5-3.2,43.56,43.56,0,0,1-5-4.8,53.82,53.82,0,0,1-5.7-7.6,57.37,57.37,0,0,1-4.1-7.8c.6-.3,1.2-.7,1.9-1a27.16,27.16,0,0,1,3.8-1.6c1.1-.4,2.2-.8,3.1-1.1.6-.2,1.1-.4,1.6-.6l2.3,3.7.1.1.1-.1,7-3.8h.1v-.1l-1.9-4.5.6-.6c2.7-2.1,4.8-3.1,6.6-2.8s3.3,1.9,4.9,5.2c1.9,5.3,4.6,8.8,8,11.1a20.53,20.53,0,0,0,11.8,3.2c1.4-.1,2.7-.2,4-.4,3-.5,6-.8,7.9,1,1,1.1,1.2,3,1.4,5.9l.1.9v.1c.1,1.2.2,2.6.3,3.9a3.38,3.38,0,0,0-1.2.6,10.77,10.77,0,0,1-4,2.2,3.51,3.51,0,0,1-2.8-.4,2.71,2.71,0,0,0-2.7,4.7,9.33,9.33,0,0,0,6.7,1,12.89,12.89,0,0,0,4.8-2.2c.3,1.3.5,2.5.8,3.8-.2.1-.3.2-.5.3a10.77,10.77,0,0,1-4,2.2,3.51,3.51,0,0,1-2.8-.4,2.71,2.71,0,0,0-2.7,4.7,9.33,9.33,0,0,0,6.7,1,12.89,12.89,0,0,0,4.8-2.2l.9,2.4c-.2,0-.4.2-.6.3a10.77,10.77,0,0,1-4,2.2,3.51,3.51,0,0,1-2.8-.4,2.71,2.71,0,1,0-2.7,4.7,9.33,9.33,0,0,0,6.7,1,15.11,15.11,0,0,0,5.7-2.8c2.8,5.1,6.8,9.1,12,10.6a27.55,27.55,0,0,0,8.6.6c3.9-.1,7.7-.3,9.9,2.1a5.61,5.61,0,0,1,1.2,2,24.91,24.91,0,0,1,.8,3.2Z"/></g></g></svg>