<?xml version="1.0" encoding="utf-8"?>
<!-- Generator: Adobe Illustrator 24.3.0, SVG Export Plug-In . SVG Version: 6.00 Build 0)  -->
<svg version="1.1" id="Capa_1" xmlns="http://www.w3.org/2000/svg" xmlns:xlink="http://www.w3.org/1999/xlink" x="0px" y="0px"
	 viewBox="0 0 25.8 25.8" style="enable-background:new 0 0 25.8 25.8;" xml:space="preserve">
<style type="text/css">
	.st0{fill:#FFFFFF;}
</style>
<g>
	<circle class="st0" cx="12.6" cy="4.9" r="1.8"/>
	<path class="st0" d="M13.5,0.1c-0.3,0.4,2.8,3,2.8,4.9c0,1-1.4,2.6-1.8,2.8C14.3,8,13.5,8,12.6,8c-0.6,0-1.7,0-1.9-0.2
		C10.2,7.4,9,6,9,5.3c0-1.5,2.8-5,2.4-5.2C10.9-0.2,7,4,7,5.3c0,2,2.7,5,2.7,5s0,4.1,0,4.5c0,3.7,1.3,10.9,2.4,10.9
		c0.7,0,0.1-3.8,0.1-5.7c0-2.2,0.4-4.3,0.4-4.3s3.4,1.2,3,1.6c-0.9,0.9-3.2,1.7-2.9,2.2c0.4,0.6,3.8-0.3,5.8-1.9
		c0.8-0.7-3.4-3.9-3.4-3.9c0-1.8,0-1.8-0.1-3.4c0,0,2.9-3.2,2.9-5C18,2.9,14-0.4,13.5,0.1z"/>
</g>
</svg>
